<svg class="icon" xmlns="http://www.w3.org/2000/svg" viewBox="0 0 24 24" width="24" height="24" aria-hidden="true" fill="currentColor"><path d="M6.727 20.005h10.545c1.823 0 2.728-.91 2.728-2.7V6.695c0-1.79-.905-2.7-2.728-2.7H6.728C4.915 3.995 4 4.901 4 6.695v10.61c0 1.794.915 2.7 2.728 2.7zm2.705-3.378c-.531.393-1.083-.016-.873-.629l1.013-3.031-2.6-1.86c-.485-.359-.332-1.049.338-1.04l3.19.019.967-3.05c.198-.594.87-.594 1.067 0l.967 3.05 3.189-.019c.673-.009.817.696.341 1.037l-2.604 1.863 1.027 3.03c.199.614-.351 1.023-.885.63l-2.565-1.886z"></path></svg>